<svg aria-hidden="true" style="position: absolute; width: 0; height: 0; overflow: hidden;" version="1.1" xmlns="http://www.w3.org/2000/svg" xmlns:xlink="http://www.w3.org/1999/xlink">
<defs>
<symbol id="icon-crown" viewBox="0 0 38 32">
<path d="M37.348 7.451c-0.316-0.291-0.719-0.494-1.165-0.565l-0.013-0.002c-0.096-0.015-0.206-0.024-0.318-0.024-0.348 0-0.676 0.082-0.968 0.228l0.012-0.006-8.416 4.107c-0.044 0.026-0.096 0.041-0.152 0.041-0.033 0-0.065-0.005-0.095-0.015l0.002 0.001c-0.042-0.016-0.079-0.038-0.111-0.065l0 0c-0.032-0.030-0.058-0.066-0.077-0.106l-0.001-0.002-4.916-9.716c-0.198-0.4-0.487-0.727-0.843-0.965l-0.009-0.006c-0.333-0.222-0.742-0.355-1.182-0.356h-0c-0.44 0.001-0.849 0.134-1.19 0.361l0.008-0.005c-0.357 0.234-0.652 0.569-0.851 0.971l-4.916 9.716c-0.020 0.042-0.047 0.078-0.079 0.108l-0 0c-0.031 0.028-0.067 0.051-0.108 0.065l-0.002 0.001c-0.028 0.010-0.060 0.015-0.093 0.015-0.056 0-0.108-0.016-0.152-0.043l0.001 0.001-8.417-4.107c-0.28-0.145-0.611-0.23-0.963-0.23-0.109 0-0.216 0.008-0.32 0.024l0.012-0.001c-0.459 0.070-0.861 0.272-1.178 0.565l0.001-0.001c-0.335 0.308-0.588 0.702-0.723 1.146l-0.005 0.018c-0.077 0.244-0.121 0.524-0.121 0.815 0 0.211 0.023 0.417 0.068 0.615l-0.004-0.019 4.25 19.855c0.071 0.336 0.204 0.652 0.391 0.929s0.422 0.51 0.692 0.684c0.356 0.24 0.765 0.367 1.183 0.367 0.213-0.003 0.427-0.033 0.633-0.092 3.561-1.128 7.657-1.778 11.905-1.778 4.226 0 8.302 0.643 12.135 1.838l-0.289-0.078c0.302 0.096 0.62 0.124 0.933 0.081s0.615-0.155 0.889-0.329c0.272-0.175 0.509-0.409 0.698-0.688s0.323-0.596 0.396-0.933l4.234-19.856c0.044-0.185 0.069-0.397 0.069-0.615 0-0.282-0.042-0.553-0.121-0.809l0.005 0.020c-0.137-0.461-0.387-0.854-0.718-1.16l-0.002-0.002zM36.18 9.504l-4.25 19.855c-0.023 0.097-0.076 0.179-0.149 0.238l-0.001 0.001c-0.053 0.029-0.115 0.046-0.182 0.046-0.030 0-0.059-0.003-0.087-0.010l0.003 0c-3.715-1.175-7.987-1.852-12.417-1.852s-8.702 0.677-12.718 1.933l0.301-0.081c-0.027 0.009-0.059 0.014-0.092 0.014-0.064 0-0.123-0.020-0.171-0.053l0.001 0.001c-0.040-0.027-0.073-0.061-0.099-0.1l-0.001-0.001c-0.026-0.038-0.045-0.084-0.054-0.133l-0-0.002-4.251-19.855c-0.004-0.021-0.006-0.045-0.006-0.070 0-0.091 0.029-0.176 0.078-0.246l-0.001 0.001c0.031-0.042 0.070-0.077 0.115-0.102l0.002-0.001c0.042-0.023 0.092-0.038 0.145-0.041l0.001-0 0.133 0.036 8.434 4.125c0.277 0.141 0.604 0.224 0.95 0.224 0.265 0 0.518-0.048 0.752-0.137l-0.015 0.005c0.554-0.204 1.016-0.629 1.296-1.192l4.917-9.717c0.027-0.057 0.066-0.104 0.115-0.14l0.001-0.001c0.047-0.033 0.105-0.052 0.167-0.052s0.12 0.020 0.168 0.053l-0.001-0.001c0.050 0.036 0.090 0.083 0.116 0.138l0.001 0.002 4.916 9.717c0.28 0.563 0.743 0.988 1.296 1.192s1.156 0.171 1.687-0.092l8.434-4.124c0.040-0.021 0.087-0.033 0.138-0.033 0.083 0 0.158 0.033 0.213 0.087l-0-0c0.049 0.043 0.086 0.099 0.106 0.163l0.001 0.003c0.012 0.036 0.018 0.077 0.018 0.12 0 0.029-0.003 0.057-0.009 0.085l0-0.003zM25.43 23.437c-0.027 0.276-0.148 0.519-0.329 0.702l0-0c-0.185 0.183-0.423 0.284-0.671 0.287h-0.1c-1.57-0.184-3.39-0.289-5.233-0.289s-3.663 0.105-5.452 0.309l0.219-0.020c-0.032 0.004-0.069 0.006-0.106 0.006-0.242 0-0.462-0.092-0.627-0.242l0.001 0.001c-0.204-0.185-0.341-0.442-0.368-0.732l-0-0.005c-0.003-0.030-0.004-0.065-0.004-0.1 0-0.266 0.086-0.511 0.232-0.71l-0.002 0.003c0.169-0.227 0.411-0.371 0.675-0.404 1.631-0.201 3.519-0.316 5.433-0.316s3.803 0.115 5.657 0.338l-0.224-0.022c0.26 0.033 0.5 0.175 0.668 0.396s0.251 0.507 0.232 0.796z"></path>
</symbol>
<symbol id="icon-medicine-cosmetics" viewBox="0 0 40 32">
<path d="M12.337 10.243h-12.51c-0.385 0-0.696 0.297-0.696 0.666v4.001c0 0.369 0.311 0.667 0.696 0.667h0.695v15.336c0 0.369 0.311 0.667 0.696 0.667h9.729c0.384 0 0.696-0.298 0.696-0.667v-15.336h0.695c0.384 0 0.695-0.298 0.695-0.667v-4c0-0.37-0.311-0.668-0.695-0.668zM4.692 22.912v-1.334h4.169v-1.334h-4.169v-1.334h5.56v8.668h-5.56v-3.334h1.39v-1.334zM10.252 17.577h-6.256c-0.384 0-0.695 0.298-0.695 0.667v10.002c0 0.369 0.311 0.667 0.695 0.667h6.256v1.334h-8.342v-14.671h8.341zM11.641 14.244h-11.119v-2.667h11.12zM21.546 10.367v-4.875c0-0.379-0.311-0.686-0.696-0.686h-0.695v-3.432h1.39v-1.374h-7.645v1.373h4.865v3.432h-0.696c-0.001 0-0.003-0-0.005-0-0.38 0-0.688 0.307-0.69 0.687v4.875c-1.584 0.319-2.78 1.704-2.78 3.363v17.163c0 0.38 0.311 0.687 0.696 0.687h8.34c0.001 0 0.003 0 0.005 0 0.38 0 0.688-0.307 0.69-0.687v-17.163c0-1.656-1.195-3.044-2.779-3.364zM18.766 6.18h1.39v4.12h-1.39zM18.071 11.672h2.78c1.15 0 2.085 0.924 2.085 2.059v0.687h-6.95v-0.687c0-1.136 0.936-2.059 2.085-2.059zM22.936 27.463h-6.951v-1.373h2.78v-1.374h-2.78v-8.925h6.95zM15.986 30.209v-1.374h6.95v1.374zM39.313 9.389h-11.729c-0.361 0.006-0.651 0.3-0.651 0.662 0 0.004 0 0.007 0 0.011v-0.001 20.847c0 0.372 0.292 0.673 0.651 0.673h11.729c0.36 0 0.651-0.301 0.651-0.673v-20.847c0-0.003 0-0.007 0-0.010 0-0.362-0.29-0.656-0.651-0.662h-0.001zM38.661 30.236h-10.425v-19.502h10.425z"></path>
<path d="M9.557 23.046h-1.737v0.854h1.737zM21.72 24.753h-1.737v1.706h1.737zM19.548 23.046c1.676 0 3.040-1.34 3.040-2.987s-1.364-2.987-3.040-2.987c-1.677 0-3.041 1.339-3.041 2.987s1.364 2.987 3.040 2.987zM19.547 18.565c0.838 0 1.52 0.669 1.52 1.494s-0.682 1.494-1.521 1.494c-0.838 0-1.52-0.67-1.52-1.494s0.681-1.494 1.52-1.494zM31.819 16.216h3.257c1.258 0 2.281-0.956 2.281-2.134s-1.023-2.134-2.281-2.134h-3.257c-1.257 0-2.28 0.957-2.28 2.135s1.023 2.134 2.28 2.134zM36.055 14.084c0 0.504-0.439 0.915-0.978 0.915h-0.977v-1.829h0.977c0.539 0 0.978 0.41 0.978 0.914zM31.819 13.17h0.977v1.829h-0.977c-0.539 0-0.978-0.41-0.978-0.915s0.439-0.914 0.978-0.914zM31.819 23.046h3.257c1.258 0 2.281-1.148 2.281-2.56s-1.023-2.562-2.281-2.562h-3.257c-1.257 0-2.28 1.148-2.28 2.561s1.023 2.56 2.28 2.56zM36.055 20.485c0 0.604-0.439 1.096-0.978 1.096h-0.977v-2.193h0.977c0.539 0 0.978 0.492 0.978 1.097zM31.819 19.387h0.977v2.195h-0.977c-0.539 0-0.978-0.492-0.978-1.097s0.439-1.097 0.978-1.097zM31.819 29.020h3.257c1.258 0 2.281-1.148 2.281-2.56s-1.023-2.561-2.281-2.561h-3.257c-1.257 0-2.28 1.148-2.28 2.56s1.023 2.561 2.28 2.561zM36.055 26.46c0 0.604-0.439 1.096-0.978 1.096h-0.977v-2.194h0.977c0.539 0 0.978 0.492 0.978 1.096zM31.819 25.362h0.977v2.194h-0.977c-0.539 0-0.978-0.492-0.978-1.097s0.439-1.096 0.978-1.096z"></path>
</symbol>
<symbol id="icon-telephone" viewBox="0 0 28 32">
<path d="M25.766 22.83l-0.179-0.223c-1.416-1.791-2.6-2.723-3.616-2.845-0.877-0.12-1.727 0.486-2.63 1.112l-0.965 0.603c-0.095 0.050-0.206 0.096-0.322 0.132l-0.015 0.004c-0.565 0.16-1.989 0.253-2.795-0.485-0.939-0.858-2.395-2.43-3.528-3.804-1.082-1.421-2.271-3.195-2.891-4.311-0.524-0.946-0.086-2.268 0.207-2.758 0.068-0.107 0.14-0.2 0.219-0.286l-0.001 0.002 0.851-0.786c0.012-0.012 0.018-0.028 0.029-0.039 0.008-0.008 0.022-0.005 0.031-0.012 0.769-0.648 1.563-1.315 1.672-2.173 0.127-1.007-0.499-2.37-1.918-4.16l-0.173-0.222c-0.877-1.125-2.206-2.828-4.114-2.548-0.75 0.111-1.42 0.367-2.112 0.801-0.006 0.004-0.010 0.012-0.017 0.017-0.005 0.004-0.012 0.004-0.018 0.008l-0.962 0.712c-0.010 0.006-0.015 0.019-0.025 0.027q-0.012 0.007-0.026 0.014-0.167 0.14-0.333 0.289c-0.975 0.87-3.089 3.396-1.647 8.067 0.93 3.017 2.849 6.538 5.562 10.202l-0.026 0.022 1.496 1.863 0.012-0.009c2.942 3.479 5.935 6.169 8.678 7.798 1.83 1.087 3.429 1.445 4.745 1.445 1.731 0 2.972-0.621 3.593-1.026l0.392-0.261c0.043-0.031 0.074-0.072 0.106-0.111l0.852-0.642c0.010-0.008 0.015-0.019 0.025-0.027 0.004-0.004 0.011-0.003 0.017-0.007 0.606-0.553 1.026-1.132 1.317-1.819 0.756-1.761-0.597-3.448-1.492-4.563zM26.246 26.959c-0.227 0.535-0.557 0.989-1.037 1.43l-1.268 0.954c-1.148 0.746-3.603 1.668-7.167-0.449-2.743-1.628-5.762-4.381-8.733-7.961l-0.805-1.016c-2.797-3.711-4.766-7.264-5.695-10.276-1.208-3.915 0.314-6.016 1.332-6.922q0.155-0.138 0.31-0.267l0.003-0.004 0.924-0.684c0.479-0.318 1.046-0.545 1.657-0.641l0.024-0.003c1.279-0.192 2.319 1.156 3.083 2.137l0.179 0.227c1.586 1.999 1.738 2.95 1.689 3.338-0.055 0.431-0.71 0.983-1.288 1.469l-0.082 0.069-0.006 0.010-0.012 0.006-0.879 0.813c-0.006 0.005-0.008 0.012-0.014 0.019-0.005 0.007-0.017 0.010-0.022 0.017-0.125 0.138-0.24 0.29-0.34 0.451l-0.008 0.013c-0.494 0.827-0.961 2.536-0.225 3.86 0.643 1.156 1.866 2.982 2.991 4.457 1.175 1.426 2.674 3.045 3.646 3.933 0.728 0.664 1.74 0.888 2.618 0.888 0.469 0 0.9-0.065 1.226-0.157 0.206-0.061 0.382-0.132 0.55-0.219l-0.017 0.008c0.010-0.006 0.017-0.015 0.027-0.023q0.010-0.001 0.021-0.005l1.020-0.639c0.033-0.022 0.056-0.052 0.083-0.078l0.012 0.014c0.63-0.437 1.346-0.95 1.796-0.874 0.396 0.047 1.301 0.43 2.888 2.436l0.183 0.23c0.774 0.964 1.833 2.285 1.339 3.441z"></path>
</symbol>
<symbol id="icon-facebook" viewBox="0 0 19 32">
<path d="M18.003 0.238c-1.344-0.152-2.902-0.238-4.48-0.238-0.052 0-0.104 0-0.156 0l0.008-0c-5.125 0-8.309 3.264-8.309 8.519v3.566h-4.306c0 0 0 0 0 0-0.421 0-0.762 0.341-0.762 0.762 0 0 0 0.001 0 0.001v-0 5.866c0.001 0.421 0.342 0.761 0.762 0.761 0 0 0 0 0 0h4.304v11.765c0.001 0.42 0.342 0.76 0.762 0.76 0 0 0.001 0 0.001 0h6.062c0 0 0.001 0 0.001 0 0.42 0 0.761-0.341 0.761-0.761 0 0 0 0 0 0v0-11.765h4.29c0.386-0.001 0.704-0.287 0.756-0.659l0-0.004 0.757-5.866c0.004-0.030 0.007-0.065 0.007-0.101 0-0.42-0.34-0.76-0.76-0.76-0.001 0-0.002 0-0.002 0h-5.048v-2.984c0-1.478 0.297-2.095 2.145-2.095h3.107c0.421-0.001 0.761-0.342 0.761-0.762 0 0 0 0 0 0v0-5.249c-0.001-0.386-0.287-0.704-0.659-0.756l-0.004-0zM17.143 5.48l-2.346 0.001c-3.287 0-3.669 2.066-3.669 3.619v3.749c0.001 0.42 0.341 0.761 0.761 0.761h4.946l-0.562 4.343h-4.383c-0 0-0.001 0-0.001 0-0.42 0-0.761 0.341-0.761 0.761 0 0 0 0.001 0 0.001v-0 11.76h-4.537v-11.76c0-0.421-0.341-0.762-0.762-0.762v0h-4.303v-4.343h4.303c0 0 0.001 0 0.001 0 0.42 0 0.761-0.341 0.761-0.761 0 0 0 0 0 0v0-4.331c0-4.378 2.537-6.994 6.785-6.994 1.537 0 2.926 0.085 3.767 0.158z"></path>
</symbol>
<symbol id="icon-instagram" viewBox="0 0 32 32">
<path d="M15.68 8.32c-4.065 0-7.36 3.295-7.36 7.36s3.295 7.36 7.36 7.36v0c4.065 0 7.36-3.295 7.36-7.36s-3.295-7.36-7.36-7.36v0zM15.68 21.12c-3.004 0-5.44-2.436-5.44-5.44s2.436-5.44 5.44-5.44c3.004 0 5.44 2.436 5.44 5.44v0c-0.009 3.001-2.439 5.431-5.439 5.44h-0.001zM22.72 0h-14.080c-4.772 0-8.64 3.868-8.64 8.64v0 14.080c0 4.772 3.868 8.64 8.64 8.64v0h14.080c4.772 0 8.64-3.868 8.64-8.64v0-14.080c0-4.772-3.868-8.64-8.64-8.64v0zM29.44 22.72c0 3.711-3.009 6.72-6.72 6.72v0h-14.080c-3.711 0-6.72-3.009-6.72-6.72v0-14.080c0-3.711 3.009-6.72 6.72-6.72v0h14.080c3.711 0 6.72 3.009 6.72 6.72v0zM25.6 7.36c0 0.884-0.716 1.6-1.6 1.6s-1.6-0.716-1.6-1.6v0c0-0.884 0.716-1.6 1.6-1.6s1.6 0.716 1.6 1.6v0z"></path>
</symbol>
<symbol id="icon-game" viewBox="0 0 29 32">
<path d="M14.347 0c-1.145 0-2.215 0.521-3.127 1.376s-1.692 2.044-2.342 3.485q-0.205 0.453-0.392 0.94c-0.238-0.042-0.583-0.088-0.932-0.125l-0.079-0.007c-0.329-0.036-0.728-0.062-1.131-0.072l-0.020-0c-1.119-0.026-2.143 0.087-3.039 0.359-1.196 0.362-2.182 1.028-2.755 2.020s-0.656 2.179-0.372 3.396c0.284 1.216 0.924 2.487 1.847 3.771q0.291 0.404 0.618 0.81-0.32 0.395-0.617 0.808c-0.923 1.284-1.563 2.555-1.847 3.772s-0.2 2.404 0.372 3.396c0.573 0.992 1.559 1.658 2.755 2.020s2.617 0.444 4.19 0.287q0.495-0.050 1.009-0.131 0.183 0.476 0.393 0.94c0.65 1.441 1.431 2.631 2.342 3.485s1.983 1.376 3.127 1.376c1.145 0 2.215-0.521 3.127-1.376s1.692-2.044 2.343-3.485q0.209-0.465 0.391-0.94 0.514 0.081 1.009 0.131c1.574 0.157 2.994 0.076 4.19-0.287s2.182-1.028 2.755-2.020 0.656-2.18 0.372-3.396c-0.284-1.216-0.924-2.487-1.847-3.772q-0.297-0.412-0.618-0.808 0.322-0.396 0.62-0.809c0.922-1.284 1.563-2.556 1.847-3.772s0.201-2.404-0.372-3.396c-0.572-0.991-1.559-1.657-2.755-2.020-0.897-0.272-1.92-0.385-3.039-0.359q-0.56 0.013-1.151 0.072-0.495 0.049-1.010 0.131c-0.166-0.437-0.298-0.747-0.438-1.052l0.047 0.113c-0.65-1.441-1.431-2.631-2.343-3.485s-1.982-1.376-3.127-1.376zM14.347 1.274c0.764 0 1.513 0.336 2.256 1.031s1.452 1.749 2.053 3.080q0.146 0.325 0.279 0.657c-1.46 0.324-3.007 0.823-4.588 1.488-1.58-0.665-3.127-1.164-4.587-1.488q0.135-0.338 0.279-0.657c0.601-1.331 1.31-2.384 2.053-3.080s1.491-1.031 2.256-1.031zM5.921 6.869q0.184-0.001 0.375 0.002 0.508 0.011 1.053 0.065 0.349 0.036 0.711 0.088c-0.449 1.427-0.791 3.015-1.005 4.717-1.367 1.036-2.572 2.127-3.583 3.229q-0.223-0.281-0.431-0.571c-0.852-1.185-1.409-2.327-1.641-3.318s-0.148-1.808 0.234-2.469c0.383-0.662 1.047-1.143 2.022-1.438 0.639-0.194 1.404-0.298 2.265-0.306zM22.773 6.869c0.861 0.007 1.626 0.112 2.265 0.305 0.975 0.296 1.639 0.777 2.022 1.439 0.381 0.662 0.465 1.478 0.234 2.469s-0.789 2.132-1.641 3.318q-0.209 0.291-0.431 0.571c-1.011-1.102-2.215-2.192-3.582-3.229-0.215-1.702-0.556-3.29-1.006-4.717q0.361-0.053 0.71-0.087c0.412-0.044 0.89-0.068 1.374-0.068 0.019 0 0.038 0 0.057 0h-0.003zM19.369 7.254c0.318 0.954 0.606 2.118 0.809 3.311l0.020 0.146c-1.202-0.825-2.589-1.639-4.034-2.355l-0.203-0.091c1.181-0.44 2.327-0.778 3.408-1.011zM9.325 7.253c1.336 0.296 2.475 0.644 3.576 1.068l-0.169-0.057c-1.647 0.808-3.035 1.621-4.357 2.523l0.121-0.078c0.223-1.339 0.511-2.503 0.878-3.631l-0.049 0.175zM14.347 8.921c1.266 0.561 2.296 1.094 3.292 1.678l-0.154-0.084c1.049 0.606 2.036 1.251 2.951 1.921 0.122 1.127 0.189 2.304 0.189 3.516s-0.066 2.388-0.189 3.515c-0.836 0.619-1.799 1.253-2.796 1.836l-0.155 0.084c-0.842 0.501-1.872 1.034-2.933 1.512l-0.206 0.083c-1.267-0.561-2.297-1.094-3.293-1.678l0.154 0.084c-1.151-0.667-2.114-1.301-3.040-1.983l0.090 0.063c-0.12-1.054-0.189-2.275-0.189-3.513 0-0.001 0-0.002 0-0.003v0c0-1.212 0.066-2.39 0.189-3.516 0.836-0.619 1.799-1.254 2.796-1.837l0.155-0.084c0.842-0.501 1.872-1.034 2.932-1.512l0.206-0.083zM14.433 10.838l-3.647 2.251 3.647 2.252 3.648-2.252zM6.881 13.507c-0.055 0.732-0.086 1.585-0.086 2.446s0.031 1.714 0.092 2.559l-0.007-0.113c-0.937-0.772-1.78-1.572-2.563-2.427l-0.017-0.019c0.8-0.874 1.642-1.674 2.537-2.412l0.042-0.034zM21.813 13.507c0.937 0.772 1.779 1.572 2.561 2.427l0.017 0.019c-0.799 0.874-1.641 1.673-2.536 2.411l-0.042 0.034c0.055-0.732 0.086-1.585 0.086-2.445s-0.031-1.713-0.092-2.558l0.007 0.113zM9.964 14.080v4.445l3.831 2.364v-4.444zM18.899 14.082l-3.83 2.364v4.444l3.83-2.364zM3.471 16.935c1.011 1.103 2.216 2.193 3.583 3.229 0.214 1.702 0.556 3.289 1.005 4.716q-0.361 0.053-0.71 0.088c-1.452 0.145-2.72 0.057-3.693-0.238-0.975-0.295-1.639-0.777-2.022-1.438s-0.465-1.479-0.234-2.47 0.788-2.132 1.64-3.317c0.169-0.235 0.31-0.421 0.455-0.604l-0.025 0.033zM25.221 16.935q0.226 0.287 0.431 0.571c0.852 1.185 1.409 2.326 1.641 3.317s0.147 1.808-0.235 2.47-1.047 1.142-2.022 1.438c-0.973 0.295-2.24 0.383-3.692 0.238q-0.356-0.036-0.709-0.087c0.449-1.428 0.791-3.016 1.005-4.718 1.367-1.036 2.571-2.126 3.582-3.228zM20.197 21.195c-0.223 1.339-0.511 2.503-0.878 3.632l0.049-0.175c-1.336-0.296-2.476-0.644-3.577-1.068l0.169 0.057c1.648-0.808 3.035-1.621 4.358-2.523l-0.121 0.078zM8.495 21.196c1.201 0.824 2.588 1.638 4.032 2.355l0.203 0.091c-0.932 0.367-2.071 0.714-3.242 0.979l-0.165 0.031c-0.318-0.953-0.605-2.117-0.808-3.31l-0.020-0.146zM14.383 21.254l0.047 0.029 0.047-0.029zM14.345 24.374c1.581 0.666 3.127 1.164 4.588 1.489q-0.133 0.332-0.279 0.659c-0.601 1.331-1.311 2.384-2.053 3.080s-1.492 1.031-2.256 1.031-1.513-0.335-2.255-1.031c-0.743-0.696-1.452-1.749-2.053-3.080q-0.148-0.327-0.279-0.659c1.46-0.325 3.007-0.823 4.588-1.488z"></path>
</symbol>
<symbol id="icon-Arrow" viewBox="0 0 38 32">
<path d="M37.267 14.202c0.386 0.386 0.625 0.919 0.625 1.508s-0.239 1.122-0.625 1.508l-13.577 13.577c-0.383 0.371-0.906 0.599-1.482 0.599-1.178 0-2.133-0.955-2.133-2.133 0-0.576 0.228-1.099 0.599-1.483l-0.001 0.001 12.066-12.068-12.066-12.068c-0.402-0.388-0.651-0.932-0.651-1.534 0-1.178 0.955-2.133 2.133-2.133 0.602 0 1.146 0.249 1.534 0.651l0.001 0.001zM35.759 17.843h-35.759v-4.267h35.759z"></path>
</symbol>
<symbol id="icon-close" viewBox="0 0 32 32">
<path stroke-linejoin="miter" stroke-linecap="round" stroke-miterlimit="4" stroke-width="3.5556" d="M1.778 1.778l14.222 14.222 14.222-14.222M1.778 30.222l14.222-14.222 14.222 14.222"></path>
</symbol>

</defs>
</svg>
